<svg version="1.1" id="Layer_1" xmlns="http://www.w3.org/2000/svg" xmlns:xlink="http://www.w3.org/1999/xlink" viewBox="0 0 120 120" enable-background="new 0 0 120 120" xml:space="preserve" fill="#A3CEF1"><g id="SVGRepo_bgCarrier" stroke-width="0"></g><g id="SVGRepo_tracerCarrier" stroke-linecap="round" stroke-linejoin="round"></g><g id="SVGRepo_iconCarrier"> <g> <path d="M60,95.5c-19.575,0-35.5-15.926-35.5-35.5c0-19.575,15.925-35.5,35.5-35.5c13.62,0,25.467,7.714,31.418,19h22.627 C106.984,20.347,85.462,3.5,60,3.5C28.796,3.5,3.5,28.796,3.5,60c0,31.203,25.296,56.5,56.5,56.5 c16.264,0,30.911-6.882,41.221-17.88L85.889,84.255C79.406,91.168,70.201,95.5,60,95.5z"></path> </g> <line fill="none" x1="120" y1="0" x2="120" y2="45.336"></line> <line fill="none" x1="91.418" y1="43.5" x2="114.045" y2="43.5"></line> <polygon points="120,21.832 119.992,68.842 74.827,55.811 "></polygon> </g></svg>